<mxfile host="app.diagrams.net" modified="2024-02-15T02:45:46.884Z" agent="Mozilla/5.0 (Macintosh; Intel Mac OS X 10.15; rv:122.0) Gecko/20100101 Firefox/122.0" etag="FemBHX7TglYbOdbYHQ5b" version="21.3.3" type="github">
  <diagram id="3228e29e-7158-1315-38df-8450db1d8a1d" name="Page-1">
    <mxGraphModel dx="661" dy="447" grid="1" gridSize="10" guides="1" tooltips="1" connect="1" arrows="1" fold="1" page="1" pageScale="1" pageWidth="1169" pageHeight="827" background="none" math="0" shadow="0">
      <root>
        <mxCell id="0" />
        <mxCell id="1" parent="0" />
        <mxCell id="_nH7iSPbOxILawq4WreT-21652" value="" style="ellipse;whiteSpace=wrap;html=1;aspect=fixed;fillColor=none;fontSize=9;" vertex="1" parent="1">
          <mxGeometry x="328" y="233" width="210" height="210" as="geometry" />
        </mxCell>
        <mxCell id="_nH7iSPbOxILawq4WreT-21653" value="" style="ellipse;whiteSpace=wrap;html=1;aspect=fixed;fillColor=none;" vertex="1" parent="1">
          <mxGeometry x="458" y="233" width="210" height="210" as="geometry" />
        </mxCell>
        <mxCell id="_nH7iSPbOxILawq4WreT-21654" value="" style="ellipse;whiteSpace=wrap;html=1;aspect=fixed;fillColor=none;fontSize=9;" vertex="1" parent="1">
          <mxGeometry x="390" y="300" width="210" height="210" as="geometry" />
        </mxCell>
        <mxCell id="_nH7iSPbOxILawq4WreT-21655" value="" style="ellipse;whiteSpace=wrap;html=1;aspect=fixed;fillColor=none;fontSize=9;" vertex="1" parent="1">
          <mxGeometry x="390" y="170" width="210" height="210" as="geometry" />
        </mxCell>
      </root>
    </mxGraphModel>
  </diagram>
</mxfile>
